<?xml version="1.0" encoding="UTF-8" standalone="no"?>
<svg
   xmlns:dc="http://purl.org/dc/elements/1.1/"
   xmlns:cc="http://creativecommons.org/ns#"
   xmlns:rdf="http://www.w3.org/1999/02/22-rdf-syntax-ns#"
   xmlns:svg="http://www.w3.org/2000/svg"
   xmlns="http://www.w3.org/2000/svg"
   viewBox="0 0 816 1056"
   height="1056"
   width="816"
   xml:space="preserve"
   id="svg2"
   version="1.1"><metadata
     id="metadata8"><rdf:RDF><cc:Work
         rdf:about=""><dc:format>image/svg+xml</dc:format><dc:type
           rdf:resource="http://purl.org/dc/dcmitype/StillImage" /></cc:Work></rdf:RDF></metadata><defs
     id="defs6"><clipPath
       id="clipPath18"
       clipPathUnits="userSpaceOnUse"><path
         style="clip-rule:evenodd"
         id="path16"
         d="M 9.12e-6,0 H 612.00001 V 792 H 9.12e-6 Z" /></clipPath><clipPath
       id="clipPath30"
       clipPathUnits="userSpaceOnUse"><path
         style="clip-rule:evenodd"
         id="path28"
         d="M 9.12e-6,0 H 612.00001 V 792 H 9.12e-6 Z" /></clipPath><clipPath
       id="clipPath38"
       clipPathUnits="userSpaceOnUse"><path
         style="clip-rule:evenodd"
         id="path36"
         d="M 9.12e-6,0 H 612.00001 V 792 H 9.12e-6 Z" /></clipPath><clipPath
       id="clipPath50"
       clipPathUnits="userSpaceOnUse"><path
         style="clip-rule:evenodd"
         id="path48"
         d="M 9.12e-6,0 H 612.00001 V 792 H 9.12e-6 Z" /></clipPath><clipPath
       id="clipPath58"
       clipPathUnits="userSpaceOnUse"><path
         style="clip-rule:evenodd"
         id="path56"
         d="M 9.12e-6,0 H 612.00001 V 792 H 9.12e-6 Z" /></clipPath><clipPath
       id="clipPath70"
       clipPathUnits="userSpaceOnUse"><path
         style="clip-rule:evenodd"
         id="path68"
         d="M 9.12e-6,0 H 612.00001 V 792 H 9.12e-6 Z" /></clipPath><clipPath
       id="clipPath78"
       clipPathUnits="userSpaceOnUse"><path
         style="clip-rule:evenodd"
         id="path76"
         d="M 9.12e-6,0 H 612.00001 V 792 H 9.12e-6 Z" /></clipPath><clipPath
       id="clipPath90"
       clipPathUnits="userSpaceOnUse"><path
         style="clip-rule:evenodd"
         id="path88"
         d="M 9.12e-6,0 H 612.00001 V 792 H 9.12e-6 Z" /></clipPath><clipPath
       id="clipPath98"
       clipPathUnits="userSpaceOnUse"><path
         style="clip-rule:evenodd"
         id="path96"
         d="M 9.12e-6,0 H 612.00001 V 792 H 9.12e-6 Z" /></clipPath><clipPath
       id="clipPath110"
       clipPathUnits="userSpaceOnUse"><path
         style="clip-rule:evenodd"
         id="path108"
         d="M 9.12e-6,0 H 612.00001 V 792 H 9.12e-6 Z" /></clipPath><clipPath
       id="clipPath118"
       clipPathUnits="userSpaceOnUse"><path
         style="clip-rule:evenodd"
         id="path116"
         d="M 9.12e-6,0 H 612.00001 V 792 H 9.12e-6 Z" /></clipPath><clipPath
       id="clipPath130"
       clipPathUnits="userSpaceOnUse"><path
         style="clip-rule:evenodd"
         id="path128"
         d="M 9.12e-6,0 H 612.00001 V 792 H 9.12e-6 Z" /></clipPath><clipPath
       id="clipPath138"
       clipPathUnits="userSpaceOnUse"><path
         style="clip-rule:evenodd"
         id="path136"
         d="M 9.12e-6,0 H 612.00001 V 792 H 9.12e-6 Z" /></clipPath><clipPath
       id="clipPath150"
       clipPathUnits="userSpaceOnUse"><path
         style="clip-rule:evenodd"
         id="path148"
         d="M 9.12e-6,0 H 612.00001 V 792 H 9.12e-6 Z" /></clipPath><clipPath
       id="clipPath158"
       clipPathUnits="userSpaceOnUse"><path
         style="clip-rule:evenodd"
         id="path156"
         d="M 9.12e-6,0 H 612.00001 V 792 H 9.12e-6 Z" /></clipPath><clipPath
       id="clipPath170"
       clipPathUnits="userSpaceOnUse"><path
         style="clip-rule:evenodd"
         id="path168"
         d="M 9.12e-6,0 H 612.00001 V 792 H 9.12e-6 Z" /></clipPath><clipPath
       id="clipPath178"
       clipPathUnits="userSpaceOnUse"><path
         style="clip-rule:evenodd"
         id="path176"
         d="M 9.12e-6,0 H 612.00001 V 792 H 9.12e-6 Z" /></clipPath><clipPath
       id="clipPath190"
       clipPathUnits="userSpaceOnUse"><path
         style="clip-rule:evenodd"
         id="path188"
         d="M 9.12e-6,0 H 612.00001 V 792 H 9.12e-6 Z" /></clipPath><clipPath
       id="clipPath198"
       clipPathUnits="userSpaceOnUse"><path
         style="clip-rule:evenodd"
         id="path196"
         d="M 9.12e-6,0 H 612.00001 V 792 H 9.12e-6 Z" /></clipPath><clipPath
       id="clipPath210"
       clipPathUnits="userSpaceOnUse"><path
         style="clip-rule:evenodd"
         id="path208"
         d="M 9.12e-6,0 H 612.00001 V 792 H 9.12e-6 Z" /></clipPath><clipPath
       id="clipPath218"
       clipPathUnits="userSpaceOnUse"><path
         style="clip-rule:evenodd"
         id="path216"
         d="M 9.12e-6,0 H 612.00001 V 792 H 9.12e-6 Z" /></clipPath><clipPath
       id="clipPath230"
       clipPathUnits="userSpaceOnUse"><path
         style="clip-rule:evenodd"
         id="path228"
         d="M 9.12e-6,0 H 612.00001 V 792 H 9.12e-6 Z" /></clipPath><clipPath
       id="clipPath238"
       clipPathUnits="userSpaceOnUse"><path
         style="clip-rule:evenodd"
         id="path236"
         d="M 9.12e-6,0 H 612.00001 V 792 H 9.12e-6 Z" /></clipPath><clipPath
       id="clipPath250"
       clipPathUnits="userSpaceOnUse"><path
         style="clip-rule:evenodd"
         id="path248"
         d="M 9.12e-6,0 H 612.00001 V 792 H 9.12e-6 Z" /></clipPath><clipPath
       id="clipPath258"
       clipPathUnits="userSpaceOnUse"><path
         style="clip-rule:evenodd"
         id="path256"
         d="M 9.12e-6,0 H 612.00001 V 792 H 9.12e-6 Z" /></clipPath><clipPath
       id="clipPath270"
       clipPathUnits="userSpaceOnUse"><path
         style="clip-rule:evenodd"
         id="path268"
         d="M 9.12e-6,0 H 612.00001 V 792 H 9.12e-6 Z" /></clipPath><clipPath
       id="clipPath278"
       clipPathUnits="userSpaceOnUse"><path
         style="clip-rule:evenodd"
         id="path276"
         d="M 9.12e-6,0 H 612.00001 V 792 H 9.12e-6 Z" /></clipPath><clipPath
       id="clipPath290"
       clipPathUnits="userSpaceOnUse"><path
         style="clip-rule:evenodd"
         id="path288"
         d="M 9.12e-6,0 H 612.00001 V 792 H 9.12e-6 Z" /></clipPath><clipPath
       id="clipPath298"
       clipPathUnits="userSpaceOnUse"><path
         style="clip-rule:evenodd"
         id="path296"
         d="M 9.12e-6,0 H 612.00001 V 792 H 9.12e-6 Z" /></clipPath><clipPath
       id="clipPath310"
       clipPathUnits="userSpaceOnUse"><path
         style="clip-rule:evenodd"
         id="path308"
         d="M 9.12e-6,0 H 612.00001 V 792 H 9.12e-6 Z" /></clipPath><clipPath
       id="clipPath318"
       clipPathUnits="userSpaceOnUse"><path
         style="clip-rule:evenodd"
         id="path316"
         d="M 9.12e-6,0 H 612.00001 V 792 H 9.12e-6 Z" /></clipPath><clipPath
       id="clipPath330"
       clipPathUnits="userSpaceOnUse"><path
         style="clip-rule:evenodd"
         id="path328"
         d="M 9.12e-6,0 H 612.00001 V 792 H 9.12e-6 Z" /></clipPath><clipPath
       id="clipPath338"
       clipPathUnits="userSpaceOnUse"><path
         style="clip-rule:evenodd"
         id="path336"
         d="M 9.12e-6,0 H 612.00001 V 792 H 9.12e-6 Z" /></clipPath><clipPath
       id="clipPath350"
       clipPathUnits="userSpaceOnUse"><path
         style="clip-rule:evenodd"
         id="path348"
         d="M 9.12e-6,0 H 612.00001 V 792 H 9.12e-6 Z" /></clipPath><clipPath
       id="clipPath358"
       clipPathUnits="userSpaceOnUse"><path
         style="clip-rule:evenodd"
         id="path356"
         d="M 9.12e-6,0 H 612.00001 V 792 H 9.12e-6 Z" /></clipPath><clipPath
       id="clipPath370"
       clipPathUnits="userSpaceOnUse"><path
         style="clip-rule:evenodd"
         id="path368"
         d="M 9.12e-6,0 H 612.00001 V 792 H 9.12e-6 Z" /></clipPath><clipPath
       id="clipPath378"
       clipPathUnits="userSpaceOnUse"><path
         style="clip-rule:evenodd"
         id="path376"
         d="M 9.12e-6,0 H 612.00001 V 792 H 9.12e-6 Z" /></clipPath><clipPath
       id="clipPath390"
       clipPathUnits="userSpaceOnUse"><path
         style="clip-rule:evenodd"
         id="path388"
         d="M 9.12e-6,0 H 612.00001 V 792 H 9.12e-6 Z" /></clipPath><clipPath
       id="clipPath398"
       clipPathUnits="userSpaceOnUse"><path
         style="clip-rule:evenodd"
         id="path396"
         d="M 9.12e-6,0 H 612.00001 V 792 H 9.12e-6 Z" /></clipPath><clipPath
       id="clipPath410"
       clipPathUnits="userSpaceOnUse"><path
         style="clip-rule:evenodd"
         id="path408"
         d="M 9.12e-6,0 H 612.00001 V 792 H 9.12e-6 Z" /></clipPath><clipPath
       id="clipPath418"
       clipPathUnits="userSpaceOnUse"><path
         style="clip-rule:evenodd"
         id="path416"
         d="M 9.12e-6,0 H 612.00001 V 792 H 9.12e-6 Z" /></clipPath><clipPath
       id="clipPath430"
       clipPathUnits="userSpaceOnUse"><path
         style="clip-rule:evenodd"
         id="path428"
         d="M 9.12e-6,0 H 612.00001 V 792 H 9.12e-6 Z" /></clipPath><clipPath
       id="clipPath438"
       clipPathUnits="userSpaceOnUse"><path
         style="clip-rule:evenodd"
         id="path436"
         d="M 9.12e-6,0 H 612.00001 V 792 H 9.12e-6 Z" /></clipPath><clipPath
       id="clipPath450"
       clipPathUnits="userSpaceOnUse"><path
         style="clip-rule:evenodd"
         id="path448"
         d="M 9.12e-6,0 H 612.00001 V 792 H 9.12e-6 Z" /></clipPath><clipPath
       id="clipPath458"
       clipPathUnits="userSpaceOnUse"><path
         style="clip-rule:evenodd"
         id="path456"
         d="M 9.12e-6,0 H 612.00001 V 792 H 9.12e-6 Z" /></clipPath><clipPath
       id="clipPath470"
       clipPathUnits="userSpaceOnUse"><path
         style="clip-rule:evenodd"
         id="path468"
         d="M 9.12e-6,0 H 612.00001 V 792 H 9.12e-6 Z" /></clipPath><clipPath
       id="clipPath478"
       clipPathUnits="userSpaceOnUse"><path
         style="clip-rule:evenodd"
         id="path476"
         d="M 9.12e-6,0 H 612.00001 V 792 H 9.12e-6 Z" /></clipPath><clipPath
       id="clipPath490"
       clipPathUnits="userSpaceOnUse"><path
         style="clip-rule:evenodd"
         id="path488"
         d="M 9.12e-6,0 H 612.00001 V 792 H 9.12e-6 Z" /></clipPath><clipPath
       id="clipPath498"
       clipPathUnits="userSpaceOnUse"><path
         style="clip-rule:evenodd"
         id="path496"
         d="M 9.12e-6,0 H 612.00001 V 792 H 9.12e-6 Z" /></clipPath><clipPath
       id="clipPath510"
       clipPathUnits="userSpaceOnUse"><path
         style="clip-rule:evenodd"
         id="path508"
         d="M 9.12e-6,0 H 612.00001 V 792 H 9.12e-6 Z" /></clipPath><clipPath
       id="clipPath518"
       clipPathUnits="userSpaceOnUse"><path
         style="clip-rule:evenodd"
         id="path516"
         d="M 9.12e-6,0 H 612.00001 V 792 H 9.12e-6 Z" /></clipPath><clipPath
       id="clipPath530"
       clipPathUnits="userSpaceOnUse"><path
         style="clip-rule:evenodd"
         id="path528"
         d="M 9.12e-6,0 H 612.00001 V 792 H 9.12e-6 Z" /></clipPath><clipPath
       id="clipPath538"
       clipPathUnits="userSpaceOnUse"><path
         style="clip-rule:evenodd"
         id="path536"
         d="M 9.12e-6,0 H 612.00001 V 792 H 9.12e-6 Z" /></clipPath><clipPath
       id="clipPath550"
       clipPathUnits="userSpaceOnUse"><path
         style="clip-rule:evenodd"
         id="path548"
         d="M 9.12e-6,0 H 612.00001 V 792 H 9.12e-6 Z" /></clipPath><clipPath
       id="clipPath558"
       clipPathUnits="userSpaceOnUse"><path
         style="clip-rule:evenodd"
         id="path556"
         d="M 9.12e-6,0 H 612.00001 V 792 H 9.12e-6 Z" /></clipPath><clipPath
       id="clipPath570"
       clipPathUnits="userSpaceOnUse"><path
         style="clip-rule:evenodd"
         id="path568"
         d="M 9.12e-6,0 H 612.00001 V 792 H 9.12e-6 Z" /></clipPath><clipPath
       id="clipPath578"
       clipPathUnits="userSpaceOnUse"><path
         style="clip-rule:evenodd"
         id="path576"
         d="M 9.12e-6,0 H 612.00001 V 792 H 9.12e-6 Z" /></clipPath><clipPath
       id="clipPath590"
       clipPathUnits="userSpaceOnUse"><path
         style="clip-rule:evenodd"
         id="path588"
         d="M 9.12e-6,0 H 612.00001 V 792 H 9.12e-6 Z" /></clipPath><clipPath
       id="clipPath598"
       clipPathUnits="userSpaceOnUse"><path
         style="clip-rule:evenodd"
         id="path596"
         d="M 9.12e-6,0 H 612.00001 V 792 H 9.12e-6 Z" /></clipPath><clipPath
       id="clipPath610"
       clipPathUnits="userSpaceOnUse"><path
         style="clip-rule:evenodd"
         id="path608"
         d="M 9.12e-6,0 H 612.00001 V 792 H 9.12e-6 Z" /></clipPath><clipPath
       id="clipPath622"
       clipPathUnits="userSpaceOnUse"><path
         style="clip-rule:evenodd"
         id="path620"
         d="M 9.12e-6,0 H 612.00001 V 792 H 9.12e-6 Z" /></clipPath><clipPath
       id="clipPath630"
       clipPathUnits="userSpaceOnUse"><path
         style="clip-rule:evenodd"
         id="path628"
         d="M 9.12e-6,0 H 612.00001 V 792 H 9.12e-6 Z" /></clipPath><clipPath
       id="clipPath642"
       clipPathUnits="userSpaceOnUse"><path
         style="clip-rule:evenodd"
         id="path640"
         d="M 9.12e-6,0 H 612.00001 V 792 H 9.12e-6 Z" /></clipPath><clipPath
       id="clipPath650"
       clipPathUnits="userSpaceOnUse"><path
         style="clip-rule:evenodd"
         id="path648"
         d="M 9.12e-6,0 H 612.00001 V 792 H 9.12e-6 Z" /></clipPath><clipPath
       id="clipPath662"
       clipPathUnits="userSpaceOnUse"><path
         style="clip-rule:evenodd"
         id="path660"
         d="M 9.12e-6,0 H 612.00001 V 792 H 9.12e-6 Z" /></clipPath><clipPath
       id="clipPath670"
       clipPathUnits="userSpaceOnUse"><path
         style="clip-rule:evenodd"
         id="path668"
         d="M 9.12e-6,0 H 612.00001 V 792 H 9.12e-6 Z" /></clipPath><clipPath
       id="clipPath682"
       clipPathUnits="userSpaceOnUse"><path
         style="clip-rule:evenodd"
         id="path680"
         d="M 9.12e-6,0 H 612.00001 V 792 H 9.12e-6 Z" /></clipPath><clipPath
       id="clipPath690"
       clipPathUnits="userSpaceOnUse"><path
         style="clip-rule:evenodd"
         id="path688"
         d="M 9.12e-6,0 H 612.00001 V 792 H 9.12e-6 Z" /></clipPath><clipPath
       id="clipPath702"
       clipPathUnits="userSpaceOnUse"><path
         style="clip-rule:evenodd"
         id="path700"
         d="M 9.12e-6,0 H 612.00001 V 792 H 9.12e-6 Z" /></clipPath><clipPath
       id="clipPath710"
       clipPathUnits="userSpaceOnUse"><path
         style="clip-rule:evenodd"
         id="path708"
         d="M 9.12e-6,0 H 612.00001 V 792 H 9.12e-6 Z" /></clipPath><clipPath
       id="clipPath722"
       clipPathUnits="userSpaceOnUse"><path
         style="clip-rule:evenodd"
         id="path720"
         d="M 9.12e-6,0 H 612.00001 V 792 H 9.12e-6 Z" /></clipPath><clipPath
       id="clipPath730"
       clipPathUnits="userSpaceOnUse"><path
         style="clip-rule:evenodd"
         id="path728"
         d="M 9.12e-6,0 H 612.00001 V 792 H 9.12e-6 Z" /></clipPath><clipPath
       id="clipPath742"
       clipPathUnits="userSpaceOnUse"><path
         style="clip-rule:evenodd"
         id="path740"
         d="M 9.12e-6,0 H 612.00001 V 792 H 9.12e-6 Z" /></clipPath><clipPath
       id="clipPath750"
       clipPathUnits="userSpaceOnUse"><path
         style="clip-rule:evenodd"
         id="path748"
         d="M 9.12e-6,0 H 612.00001 V 792 H 9.12e-6 Z" /></clipPath><clipPath
       id="clipPath762"
       clipPathUnits="userSpaceOnUse"><path
         style="clip-rule:evenodd"
         id="path760"
         d="M 9.12e-6,0 H 612.00001 V 792 H 9.12e-6 Z" /></clipPath><clipPath
       id="clipPath770"
       clipPathUnits="userSpaceOnUse"><path
         style="clip-rule:evenodd"
         id="path768"
         d="M 9.12e-6,0 H 612.00001 V 792 H 9.12e-6 Z" /></clipPath><clipPath
       id="clipPath782"
       clipPathUnits="userSpaceOnUse"><path
         style="clip-rule:evenodd"
         id="path780"
         d="M 9.12e-6,0 H 612.00001 V 792 H 9.12e-6 Z" /></clipPath><clipPath
       id="clipPath790"
       clipPathUnits="userSpaceOnUse"><path
         style="clip-rule:evenodd"
         id="path788"
         d="M 9.12e-6,0 H 612.00001 V 792 H 9.12e-6 Z" /></clipPath><clipPath
       id="clipPath802"
       clipPathUnits="userSpaceOnUse"><path
         style="clip-rule:evenodd"
         id="path800"
         d="M 9.12e-6,0 H 612.00001 V 792 H 9.12e-6 Z" /></clipPath><clipPath
       id="clipPath810"
       clipPathUnits="userSpaceOnUse"><path
         style="clip-rule:evenodd"
         id="path808"
         d="M 9.12e-6,0 H 612.00001 V 792 H 9.12e-6 Z" /></clipPath><clipPath
       id="clipPath822"
       clipPathUnits="userSpaceOnUse"><path
         style="clip-rule:evenodd"
         id="path820"
         d="M 9.12e-6,0 H 612.00001 V 792 H 9.12e-6 Z" /></clipPath><clipPath
       id="clipPath830"
       clipPathUnits="userSpaceOnUse"><path
         style="clip-rule:evenodd"
         id="path828"
         d="M 9.12e-6,0 H 612.00001 V 792 H 9.12e-6 Z" /></clipPath></defs><g
     transform="matrix(1.3333333,0,0,-1.3333333,0,1056)"
     id="g10"><g
       id="g12"><g
         clip-path="url(#clipPath18)"
         id="g14"><text
           id="text22"
           style="font-variant:normal;font-weight:normal;font-size:10.56000042px;font-family:'Courier 10 Pitch';-inkscape-font-specification:CourierNewPSMT;writing-mode:lr-tb;fill:#000000;fill-opacity:1;fill-rule:nonzero;stroke:none"
           transform="matrix(1,0,0,-1,75.024,710.98)"><tspan
             id="tspan20"
             y="0"
             x="0 6.336 12.71424 18.9552 25.291201 31.55328 37.889278 44.15136">0.693032</tspan></text>
</g></g><g
       id="g24"><g
         clip-path="url(#clipPath30)"
         id="g26" /></g><g
       id="g32"><g
         clip-path="url(#clipPath38)"
         id="g34"><text
           id="text42"
           style="font-variant:normal;font-weight:normal;font-size:10.56000042px;font-family:'Courier 10 Pitch';-inkscape-font-specification:CourierNewPSMT;writing-mode:lr-tb;fill:#000000;fill-opacity:1;fill-rule:nonzero;stroke:none"
           transform="matrix(1,0,0,-1,75.024,699.1)"><tspan
             id="tspan40"
             y="0"
             x="0 6.336 12.71424 18.9552 25.291201 31.55328 37.889278 44.15136">0.593122</tspan></text>
</g></g><g
       id="g44"><g
         clip-path="url(#clipPath50)"
         id="g46" /></g><g
       id="g52"><g
         clip-path="url(#clipPath58)"
         id="g54"><text
           id="text62"
           style="font-variant:normal;font-weight:normal;font-size:10.56000042px;font-family:'Courier 10 Pitch';-inkscape-font-specification:CourierNewPSMT;writing-mode:lr-tb;fill:#000000;fill-opacity:1;fill-rule:nonzero;stroke:none"
           transform="matrix(1,0,0,-1,75.024,687.22)"><tspan
             id="tspan60"
             y="0"
             x="0 6.336 12.71424 18.9552 25.291201 31.55328 37.889278 44.15136">0.537264</tspan></text>
</g></g><g
       id="g64"><g
         clip-path="url(#clipPath70)"
         id="g66" /></g><g
       id="g72"><g
         clip-path="url(#clipPath78)"
         id="g74"><text
           id="text82"
           style="font-variant:normal;font-weight:normal;font-size:10.56000042px;font-family:'Courier 10 Pitch';-inkscape-font-specification:CourierNewPSMT;writing-mode:lr-tb;fill:#000000;fill-opacity:1;fill-rule:nonzero;stroke:none"
           transform="matrix(1,0,0,-1,75.024,675.34)"><tspan
             id="tspan80"
             y="0"
             x="0 6.336 12.71424 18.9552 25.291201 31.55328 37.889278 44.15136">0.503015</tspan></text>
</g></g><g
       id="g84"><g
         clip-path="url(#clipPath90)"
         id="g86" /></g><g
       id="g92"><g
         clip-path="url(#clipPath98)"
         id="g94"><text
           id="text102"
           style="font-variant:normal;font-weight:normal;font-size:10.56000042px;font-family:'Courier 10 Pitch';-inkscape-font-specification:CourierNewPSMT;writing-mode:lr-tb;fill:#000000;fill-opacity:1;fill-rule:nonzero;stroke:none"
           transform="matrix(1,0,0,-1,75.024,663.46)"><tspan
             id="tspan100"
             y="0"
             x="0 6.336 12.71424 18.9552 25.291201 31.55328 37.889278 44.15136">0.480469</tspan></text>
</g></g><g
       id="g104"><g
         clip-path="url(#clipPath110)"
         id="g106" /></g><g
       id="g112"><g
         clip-path="url(#clipPath118)"
         id="g114"><text
           id="text122"
           style="font-variant:normal;font-weight:normal;font-size:10.56000042px;font-family:'Courier 10 Pitch';-inkscape-font-specification:CourierNewPSMT;writing-mode:lr-tb;fill:#000000;fill-opacity:1;fill-rule:nonzero;stroke:none"
           transform="matrix(1,0,0,-1,75.024,651.46)"><tspan
             id="tspan120"
             y="0"
             x="0 6.336 12.71424 18.9552 25.291201 31.55328 37.889278 44.15136">0.464833</tspan></text>
</g></g><g
       id="g124"><g
         clip-path="url(#clipPath130)"
         id="g126" /></g><g
       id="g132"><g
         clip-path="url(#clipPath138)"
         id="g134"><text
           id="text142"
           style="font-variant:normal;font-weight:normal;font-size:10.56000042px;font-family:'Courier 10 Pitch';-inkscape-font-specification:CourierNewPSMT;writing-mode:lr-tb;fill:#000000;fill-opacity:1;fill-rule:nonzero;stroke:none"
           transform="matrix(1,0,0,-1,75.024,639.58)"><tspan
             id="tspan140"
             y="0"
             x="0 6.336 12.71424 18.9552 25.291201 31.55328 37.889278 44.15136">0.453551</tspan></text>
</g></g><g
       id="g144"><g
         clip-path="url(#clipPath150)"
         id="g146" /></g><g
       id="g152"><g
         clip-path="url(#clipPath158)"
         id="g154"><text
           id="text162"
           style="font-variant:normal;font-weight:normal;font-size:10.56000042px;font-family:'Courier 10 Pitch';-inkscape-font-specification:CourierNewPSMT;writing-mode:lr-tb;fill:#000000;fill-opacity:1;fill-rule:nonzero;stroke:none"
           transform="matrix(1,0,0,-1,75.024,627.7)"><tspan
             id="tspan160"
             y="0"
             x="0 6.336 12.71424 18.9552 25.291201 31.55328 37.889278 44.15136">0.445149</tspan></text>
</g></g><g
       id="g164"><g
         clip-path="url(#clipPath170)"
         id="g166" /></g><g
       id="g172"><g
         clip-path="url(#clipPath178)"
         id="g174"><text
           id="text182"
           style="font-variant:normal;font-weight:normal;font-size:10.56000042px;font-family:'Courier 10 Pitch';-inkscape-font-specification:CourierNewPSMT;writing-mode:lr-tb;fill:#000000;fill-opacity:1;fill-rule:nonzero;stroke:none"
           transform="matrix(1,0,0,-1,75.024,615.82)"><tspan
             id="tspan180"
             y="0"
             x="0 6.336 12.71424 18.9552 25.291201 31.55328 37.889278 44.15136">0.438728</tspan></text>
</g></g><g
       id="g184"><g
         clip-path="url(#clipPath190)"
         id="g186" /></g><g
       id="g192"><g
         clip-path="url(#clipPath198)"
         id="g194"><text
           id="text202"
           style="font-variant:normal;font-weight:normal;font-size:10.56000042px;font-family:'Courier 10 Pitch';-inkscape-font-specification:CourierNewPSMT;writing-mode:lr-tb;fill:#000000;fill-opacity:1;fill-rule:nonzero;stroke:none"
           transform="matrix(1,0,0,-1,75.024,603.94)"><tspan
             id="tspan200"
             y="0"
             x="0 6.336 12.71424 18.9552 25.291201 31.55328 37.889278 44.15136">0.433713</tspan></text>
</g></g><g
       id="g204"><g
         clip-path="url(#clipPath210)"
         id="g206" /></g><g
       id="g212"><g
         clip-path="url(#clipPath218)"
         id="g214"><text
           id="text222"
           style="font-variant:normal;font-weight:normal;font-size:10.56000042px;font-family:'Courier 10 Pitch';-inkscape-font-specification:CourierNewPSMT;writing-mode:lr-tb;fill:#000000;fill-opacity:1;fill-rule:nonzero;stroke:none"
           transform="matrix(1,0,0,-1,75.024,592.06)"><tspan
             id="tspan220"
             y="0"
             x="0 6.336 12.71424 18.9552 25.291201 31.55328 37.889278 44.15136">0.429721</tspan></text>
</g></g><g
       id="g224"><g
         clip-path="url(#clipPath230)"
         id="g226" /></g><g
       id="g232"><g
         clip-path="url(#clipPath238)"
         id="g234"><text
           id="text242"
           style="font-variant:normal;font-weight:normal;font-size:10.56000042px;font-family:'Courier 10 Pitch';-inkscape-font-specification:CourierNewPSMT;writing-mode:lr-tb;fill:#000000;fill-opacity:1;fill-rule:nonzero;stroke:none"
           transform="matrix(1,0,0,-1,75.024,580.18)"><tspan
             id="tspan240"
             y="0"
             x="0 6.336 12.71424 18.9552 25.291201 31.55328 37.889278 44.15136">0.426491</tspan></text>
</g></g><g
       id="g244"><g
         clip-path="url(#clipPath250)"
         id="g246" /></g><g
       id="g252"><g
         clip-path="url(#clipPath258)"
         id="g254"><text
           id="text262"
           style="font-variant:normal;font-weight:normal;font-size:10.56000042px;font-family:'Courier 10 Pitch';-inkscape-font-specification:CourierNewPSMT;writing-mode:lr-tb;fill:#000000;fill-opacity:1;fill-rule:nonzero;stroke:none"
           transform="matrix(1,0,0,-1,75.024,568.3)"><tspan
             id="tspan260"
             y="0"
             x="0 6.336 12.71424 18.9552 25.291201 31.55328 37.889278">0.42384</tspan></text>
</g></g><g
       id="g264"><g
         clip-path="url(#clipPath270)"
         id="g266" /></g><g
       id="g272"><g
         clip-path="url(#clipPath278)"
         id="g274"><text
           id="text282"
           style="font-variant:normal;font-weight:normal;font-size:10.56000042px;font-family:'Courier 10 Pitch';-inkscape-font-specification:CourierNewPSMT;writing-mode:lr-tb;fill:#000000;fill-opacity:1;fill-rule:nonzero;stroke:none"
           transform="matrix(1,0,0,-1,75.024,556.3)"><tspan
             id="tspan280"
             y="0"
             x="0 6.336 12.71424 18.9552 25.291201 31.55328 37.889278 44.15136">0.421635</tspan></text>
</g></g><g
       id="g284"><g
         clip-path="url(#clipPath290)"
         id="g286" /></g><g
       id="g292"><g
         clip-path="url(#clipPath298)"
         id="g294"><text
           id="text302"
           style="font-variant:normal;font-weight:normal;font-size:10.56000042px;font-family:'Courier 10 Pitch';-inkscape-font-specification:CourierNewPSMT;writing-mode:lr-tb;fill:#000000;fill-opacity:1;fill-rule:nonzero;stroke:none"
           transform="matrix(1,0,0,-1,75.024,544.39)"><tspan
             id="tspan300"
             y="0"
             x="0 6.336 12.71424 18.9552 25.291201 31.55328 37.889278">0.41978</tspan></text>
</g></g><g
       id="g304"><g
         clip-path="url(#clipPath310)"
         id="g306" /></g><g
       id="g312"><g
         clip-path="url(#clipPath318)"
         id="g314"><text
           id="text322"
           style="font-variant:normal;font-weight:normal;font-size:10.56000042px;font-family:'Courier 10 Pitch';-inkscape-font-specification:CourierNewPSMT;writing-mode:lr-tb;fill:#000000;fill-opacity:1;fill-rule:nonzero;stroke:none"
           transform="matrix(1,0,0,-1,75.024,532.51)"><tspan
             id="tspan320"
             y="0"
             x="0 6.336 12.71424 18.9552 25.291201 31.55328 37.889278 44.15136">0.418203</tspan></text>
</g></g><g
       id="g324"><g
         clip-path="url(#clipPath330)"
         id="g326" /></g><g
       id="g332"><g
         clip-path="url(#clipPath338)"
         id="g334"><text
           id="text342"
           style="font-variant:normal;font-weight:normal;font-size:10.56000042px;font-family:'Courier 10 Pitch';-inkscape-font-specification:CourierNewPSMT;writing-mode:lr-tb;fill:#000000;fill-opacity:1;fill-rule:nonzero;stroke:none"
           transform="matrix(1,0,0,-1,75.024,520.63)"><tspan
             id="tspan340"
             y="0"
             x="0 6.336 12.71424 18.9552 25.291201 31.55328 37.889278 44.15136">0.416849</tspan></text>
</g></g><g
       id="g344"><g
         clip-path="url(#clipPath350)"
         id="g346" /></g><g
       id="g352"><g
         clip-path="url(#clipPath358)"
         id="g354"><text
           id="text362"
           style="font-variant:normal;font-weight:normal;font-size:10.56000042px;font-family:'Courier 10 Pitch';-inkscape-font-specification:CourierNewPSMT;writing-mode:lr-tb;fill:#000000;fill-opacity:1;fill-rule:nonzero;stroke:none"
           transform="matrix(1,0,0,-1,75.024,508.75)"><tspan
             id="tspan360"
             y="0"
             x="0 6.336 12.71424 18.9552 25.291201 31.55328 37.889278 44.15136">0.415677</tspan></text>
</g></g><g
       id="g364"><g
         clip-path="url(#clipPath370)"
         id="g366" /></g><g
       id="g372"><g
         clip-path="url(#clipPath378)"
         id="g374"><text
           id="text382"
           style="font-variant:normal;font-weight:normal;font-size:10.56000042px;font-family:'Courier 10 Pitch';-inkscape-font-specification:CourierNewPSMT;writing-mode:lr-tb;fill:#000000;fill-opacity:1;fill-rule:nonzero;stroke:none"
           transform="matrix(1,0,0,-1,75.024,496.87)"><tspan
             id="tspan380"
             y="0"
             x="0 6.336 12.71424 18.9552 25.291201 31.55328 37.889278 44.15136">0.414653</tspan></text>
</g></g><g
       id="g384"><g
         clip-path="url(#clipPath390)"
         id="g386" /></g><g
       id="g392"><g
         clip-path="url(#clipPath398)"
         id="g394"><text
           id="text402"
           style="font-variant:normal;font-weight:normal;font-size:10.56000042px;font-family:'Courier 10 Pitch';-inkscape-font-specification:CourierNewPSMT;writing-mode:lr-tb;fill:#000000;fill-opacity:1;fill-rule:nonzero;stroke:none"
           transform="matrix(1,0,0,-1,75.024,484.99)"><tspan
             id="tspan400"
             y="0"
             x="0 6.336 12.71424 18.9552 25.291201 31.55328 37.889278 44.15136">0.413751</tspan></text>
</g></g><g
       id="g404"><g
         clip-path="url(#clipPath410)"
         id="g406" /></g><g
       id="g412"><g
         clip-path="url(#clipPath418)"
         id="g414"><text
           id="text422"
           style="font-variant:normal;font-weight:normal;font-size:10.56000042px;font-family:'Courier 10 Pitch';-inkscape-font-specification:CourierNewPSMT;writing-mode:lr-tb;fill:#000000;fill-opacity:1;fill-rule:nonzero;stroke:none"
           transform="matrix(1,0,0,-1,75.024,473.11)"><tspan
             id="tspan420"
             y="0"
             x="0 6.336 12.71424 18.9552 25.291201 31.55328 37.889278 44.15136">0.412953</tspan></text>
</g></g><g
       id="g424"><g
         clip-path="url(#clipPath430)"
         id="g426" /></g><g
       id="g432"><g
         clip-path="url(#clipPath438)"
         id="g434"><text
           id="text442"
           style="font-variant:normal;font-weight:normal;font-size:10.56000042px;font-family:'Courier 10 Pitch';-inkscape-font-specification:CourierNewPSMT;writing-mode:lr-tb;fill:#000000;fill-opacity:1;fill-rule:nonzero;stroke:none"
           transform="matrix(1,0,0,-1,75.024,461.11)"><tspan
             id="tspan440"
             y="0"
             x="0 6.336 12.71424 18.9552 25.291201 31.55328 37.889278">0.41224</tspan></text>
</g></g><g
       id="g444"><g
         clip-path="url(#clipPath450)"
         id="g446" /></g><g
       id="g452"><g
         clip-path="url(#clipPath458)"
         id="g454"><text
           id="text462"
           style="font-variant:normal;font-weight:normal;font-size:10.56000042px;font-family:'Courier 10 Pitch';-inkscape-font-specification:CourierNewPSMT;writing-mode:lr-tb;fill:#000000;fill-opacity:1;fill-rule:nonzero;stroke:none"
           transform="matrix(1,0,0,-1,75.024,449.23)"><tspan
             id="tspan460"
             y="0"
             x="0 6.336 12.71424 18.9552 25.291201 31.55328">0.4116</tspan></text>
</g></g><g
       id="g464"><g
         clip-path="url(#clipPath470)"
         id="g466" /></g><g
       id="g472"><g
         clip-path="url(#clipPath478)"
         id="g474"><text
           id="text482"
           style="font-variant:normal;font-weight:normal;font-size:10.56000042px;font-family:'Courier 10 Pitch';-inkscape-font-specification:CourierNewPSMT;writing-mode:lr-tb;fill:#000000;fill-opacity:1;fill-rule:nonzero;stroke:none"
           transform="matrix(1,0,0,-1,75.024,437.35)"><tspan
             id="tspan480"
             y="0"
             x="0 6.336 12.71424 18.9552 25.291201 31.55328 37.889278 44.15136">0.411022</tspan></text>
</g></g><g
       id="g484"><g
         clip-path="url(#clipPath490)"
         id="g486" /></g><g
       id="g492"><g
         clip-path="url(#clipPath498)"
         id="g494"><text
           id="text502"
           style="font-variant:normal;font-weight:normal;font-size:10.56000042px;font-family:'Courier 10 Pitch';-inkscape-font-specification:CourierNewPSMT;writing-mode:lr-tb;fill:#000000;fill-opacity:1;fill-rule:nonzero;stroke:none"
           transform="matrix(1,0,0,-1,75.024,425.47)"><tspan
             id="tspan500"
             y="0"
             x="0 6.336 12.71424 18.9552 25.291201 31.55328 37.889278 44.15136">0.410498</tspan></text>
</g></g><g
       id="g504"><g
         clip-path="url(#clipPath510)"
         id="g506" /></g><g
       id="g512"><g
         clip-path="url(#clipPath518)"
         id="g514"><text
           id="text522"
           style="font-variant:normal;font-weight:normal;font-size:10.56000042px;font-family:'Courier 10 Pitch';-inkscape-font-specification:CourierNewPSMT;writing-mode:lr-tb;fill:#000000;fill-opacity:1;fill-rule:nonzero;stroke:none"
           transform="matrix(1,0,0,-1,75.024,413.59)"><tspan
             id="tspan520"
             y="0"
             x="0 6.336 12.71424 18.9552 25.291201 31.55328 37.889278 44.15136">0.410019</tspan></text>
</g></g><g
       id="g524"><g
         clip-path="url(#clipPath530)"
         id="g526" /></g><g
       id="g532"><g
         clip-path="url(#clipPath538)"
         id="g534"><text
           id="text542"
           style="font-variant:normal;font-weight:normal;font-size:10.56000042px;font-family:'Courier 10 Pitch';-inkscape-font-specification:CourierNewPSMT;writing-mode:lr-tb;fill:#000000;fill-opacity:1;fill-rule:nonzero;stroke:none"
           transform="matrix(1,0,0,-1,75.024,401.71)"><tspan
             id="tspan540"
             y="0"
             x="0 6.336 12.71424 18.9552 25.291201 31.55328 37.889278">0.40958</tspan></text>
</g></g><g
       id="g544"><g
         clip-path="url(#clipPath550)"
         id="g546" /></g><g
       id="g552"><g
         clip-path="url(#clipPath558)"
         id="g554"><text
           id="text562"
           style="font-variant:normal;font-weight:normal;font-size:10.56000042px;font-family:'Courier 10 Pitch';-inkscape-font-specification:CourierNewPSMT;writing-mode:lr-tb;fill:#000000;fill-opacity:1;fill-rule:nonzero;stroke:none"
           transform="matrix(1,0,0,-1,75.024,389.83)"><tspan
             id="tspan560"
             y="0"
             x="0 6.336 12.71424 18.9552 25.291201 31.55328 37.889278 44.15136">0.409176</tspan></text>
</g></g><g
       id="g564"><g
         clip-path="url(#clipPath570)"
         id="g566" /></g><g
       id="g572"><g
         clip-path="url(#clipPath578)"
         id="g574"><text
           id="text582"
           style="font-variant:normal;font-weight:normal;font-size:10.56000042px;font-family:'Courier 10 Pitch';-inkscape-font-specification:CourierNewPSMT;writing-mode:lr-tb;fill:#000000;fill-opacity:1;fill-rule:nonzero;stroke:none"
           transform="matrix(1,0,0,-1,75.024,377.93)"><tspan
             id="tspan580"
             y="0"
             x="0 6.336 12.71424 18.9552 25.291201 31.55328 37.889278 44.15136">0.408802</tspan></text>
</g></g><g
       id="g584"><g
         clip-path="url(#clipPath590)"
         id="g586" /></g><g
       id="g592"><g
         clip-path="url(#clipPath598)"
         id="g594"><text
           id="text602"
           style="font-variant:normal;font-weight:normal;font-size:10.56000042px;font-family:'Courier 10 Pitch';-inkscape-font-specification:CourierNewPSMT;writing-mode:lr-tb;fill:#000000;fill-opacity:1;fill-rule:nonzero;stroke:none"
           transform="matrix(1,0,0,-1,75.024,365.93)"><tspan
             id="tspan600"
             y="0"
             x="0">0</tspan></text>
</g></g><g
       id="g604"><g
         clip-path="url(#clipPath610)"
         id="g606"><text
           id="text614"
           style="font-variant:normal;font-weight:normal;font-size:10.56000042px;font-family:'Courier 10 Pitch';-inkscape-font-specification:CourierNewPSMT;writing-mode:lr-tb;fill:#000000;fill-opacity:1;fill-rule:nonzero;stroke:none"
           transform="matrix(1,0,0,-1,81.384,365.93)"><tspan
             id="tspan612"
             y="0"
             x="0 6.336 12.59808 18.93408 25.196159 31.53216 37.794239">.408454</tspan></text>
</g></g><g
       id="g616"><g
         clip-path="url(#clipPath622)"
         id="g618" /></g><g
       id="g624"><g
         clip-path="url(#clipPath630)"
         id="g626"><text
           id="text634"
           style="font-variant:normal;font-weight:normal;font-size:10.56000042px;font-family:'Courier 10 Pitch';-inkscape-font-specification:CourierNewPSMT;writing-mode:lr-tb;fill:#000000;fill-opacity:1;fill-rule:nonzero;stroke:none"
           transform="matrix(1,0,0,-1,75.024,354.05)"><tspan
             id="tspan632"
             y="0"
             x="0 6.336 12.71424 18.9552 25.291201 31.55328 37.889278 44.15136">0.408131</tspan></text>
</g></g><g
       id="g636"><g
         clip-path="url(#clipPath642)"
         id="g638" /></g><g
       id="g644"><g
         clip-path="url(#clipPath650)"
         id="g646"><text
           id="text654"
           style="font-variant:normal;font-weight:normal;font-size:10.56000042px;font-family:'Courier 10 Pitch';-inkscape-font-specification:CourierNewPSMT;writing-mode:lr-tb;fill:#000000;fill-opacity:1;fill-rule:nonzero;stroke:none"
           transform="matrix(1,0,0,-1,75.024,342.17)"><tspan
             id="tspan652"
             y="0"
             x="0 6.336 12.71424 18.9552 25.291201 31.55328 37.889278 44.15136">0.407828</tspan></text>
</g></g><g
       id="g656"><g
         clip-path="url(#clipPath662)"
         id="g658" /></g><g
       id="g664"><g
         clip-path="url(#clipPath670)"
         id="g666"><text
           id="text674"
           style="font-variant:normal;font-weight:normal;font-size:10.56000042px;font-family:'Courier 10 Pitch';-inkscape-font-specification:CourierNewPSMT;writing-mode:lr-tb;fill:#000000;fill-opacity:1;fill-rule:nonzero;stroke:none"
           transform="matrix(1,0,0,-1,75.024,330.29)"><tspan
             id="tspan672"
             y="0"
             x="0 6.336 12.71424 18.9552 25.291201 31.55328 37.889278 44.15136">0.407544</tspan></text>
</g></g><g
       id="g676"><g
         clip-path="url(#clipPath682)"
         id="g678" /></g><g
       id="g684"><g
         clip-path="url(#clipPath690)"
         id="g686"><text
           id="text694"
           style="font-variant:normal;font-weight:normal;font-size:10.56000042px;font-family:'Courier 10 Pitch';-inkscape-font-specification:CourierNewPSMT;writing-mode:lr-tb;fill:#000000;fill-opacity:1;fill-rule:nonzero;stroke:none"
           transform="matrix(1,0,0,-1,75.024,318.41)"><tspan
             id="tspan692"
             y="0"
             x="0 6.336 12.71424 18.9552 25.291201 31.55328 37.889278 44.15136">0.407276</tspan></text>
</g></g><g
       id="g696"><g
         clip-path="url(#clipPath702)"
         id="g698" /></g><g
       id="g704"><g
         clip-path="url(#clipPath710)"
         id="g706"><text
           id="text714"
           style="font-variant:normal;font-weight:normal;font-size:10.56000042px;font-family:'Courier 10 Pitch';-inkscape-font-specification:CourierNewPSMT;writing-mode:lr-tb;fill:#000000;fill-opacity:1;fill-rule:nonzero;stroke:none"
           transform="matrix(1,0,0,-1,75.024,306.53)"><tspan
             id="tspan712"
             y="0"
             x="0 6.336 12.71424 18.9552 25.291201 31.55328 37.889278 44.15136">0.407024</tspan></text>
</g></g><g
       id="g716"><g
         clip-path="url(#clipPath722)"
         id="g718" /></g><g
       id="g724"><g
         clip-path="url(#clipPath730)"
         id="g726"><text
           id="text734"
           style="font-variant:normal;font-weight:normal;font-size:10.56000042px;font-family:'Courier 10 Pitch';-inkscape-font-specification:CourierNewPSMT;writing-mode:lr-tb;fill:#000000;fill-opacity:1;fill-rule:nonzero;stroke:none"
           transform="matrix(1,0,0,-1,75.024,294.65)"><tspan
             id="tspan732"
             y="0"
             x="0 6.336 12.71424 18.9552 25.291201 31.55328 37.889278 44.15136">0.406785</tspan></text>
</g></g><g
       id="g736"><g
         clip-path="url(#clipPath742)"
         id="g738" /></g><g
       id="g744"><g
         clip-path="url(#clipPath750)"
         id="g746"><text
           id="text754"
           style="font-variant:normal;font-weight:normal;font-size:10.56000042px;font-family:'Courier 10 Pitch';-inkscape-font-specification:CourierNewPSMT;writing-mode:lr-tb;fill:#000000;fill-opacity:1;fill-rule:nonzero;stroke:none"
           transform="matrix(1,0,0,-1,75.024,282.77)"><tspan
             id="tspan752"
             y="0"
             x="0 6.336 12.71424 18.9552 25.291201 31.55328 37.889278 44.15136">0.406559</tspan></text>
</g></g><g
       id="g756"><g
         clip-path="url(#clipPath762)"
         id="g758" /></g><g
       id="g764"><g
         clip-path="url(#clipPath770)"
         id="g766"><text
           id="text774"
           style="font-variant:normal;font-weight:normal;font-size:10.56000042px;font-family:'Courier 10 Pitch';-inkscape-font-specification:CourierNewPSMT;writing-mode:lr-tb;fill:#000000;fill-opacity:1;fill-rule:nonzero;stroke:none"
           transform="matrix(1,0,0,-1,75.024,270.89)"><tspan
             id="tspan772"
             y="0"
             x="0 6.336 12.71424 18.9552 25.291201 31.55328 37.889278 44.15136">0.406343</tspan></text>
</g></g><g
       id="g776"><g
         clip-path="url(#clipPath782)"
         id="g778" /></g><g
       id="g784"><g
         clip-path="url(#clipPath790)"
         id="g786"><text
           id="text794"
           style="font-variant:normal;font-weight:normal;font-size:10.56000042px;font-family:'Courier 10 Pitch';-inkscape-font-specification:CourierNewPSMT;writing-mode:lr-tb;fill:#000000;fill-opacity:1;fill-rule:nonzero;stroke:none"
           transform="matrix(1,0,0,-1,75.024,258.89)"><tspan
             id="tspan792"
             y="0"
             x="0 6.336 12.71424 18.9552 25.291201 31.55328 37.889278 44.15136">0.406138</tspan></text>
</g></g><g
       id="g796"><g
         clip-path="url(#clipPath802)"
         id="g798" /></g><g
       id="g804"><g
         clip-path="url(#clipPath810)"
         id="g806"><text
           id="text814"
           style="font-variant:normal;font-weight:normal;font-size:10.56000042px;font-family:'Courier 10 Pitch';-inkscape-font-specification:CourierNewPSMT;writing-mode:lr-tb;fill:#000000;fill-opacity:1;fill-rule:nonzero;stroke:none"
           transform="matrix(1,0,0,-1,75.024,247.01)"><tspan
             id="tspan812"
             y="0"
             x="0 6.336 12.71424 18.9552 25.291201 31.55328 37.889278 44.15136">0.405943</tspan></text>
</g></g><g
       id="g816"><g
         clip-path="url(#clipPath822)"
         id="g818" /></g><g
       id="g824"><g
         clip-path="url(#clipPath830)"
         id="g826" /></g></g></svg>